<svg width="24" height="24" viewBox="0 0 24 24" fill="none" xmlns="http://www.w3.org/2000/svg">
<g clip-path="url(#clip0_15519_1114)">
<path d="M14 3H10C7.87827 3 5.84344 3.84285 4.34315 5.34315C2.84285 6.84344 2 8.87827 2 11C2 13.1217 2.84285 15.1566 4.34315 16.6569C5.84344 18.1571 7.87827 19 10 19V22.5C15 20.5 22 17.5 22 11C22 8.87827 21.1571 6.84344 19.6569 5.34315C18.1566 3.84285 16.1217 3 14 3ZM12 17H10C9.21207 17 8.43185 16.8448 7.7039 16.5433C6.97595 16.2417 6.31451 15.7998 5.75736 15.2426C5.20021 14.6855 4.75825 14.0241 4.45672 13.2961C4.15519 12.5681 4 11.7879 4 11C4 10.2121 4.15519 9.43185 4.45672 8.7039C4.75825 7.97595 5.20021 7.31451 5.75736 6.75736C6.31451 6.20021 6.97595 5.75825 7.7039 5.45672C8.43185 5.15519 9.21207 5 10 5H14C15.5913 5 17.1174 5.63214 18.2426 6.75736C19.3679 7.88258 20 9.4087 20 11C20 14.61 17.538 16.966 12 19.48V17Z" fill="white"/>
</g>
<defs>
<clipPath id="clip0_15519_1114">
<rect width="24" height="24" fill="white" transform="matrix(-1 0 0 1 24 0)"/>
</clipPath>
</defs>
</svg>
