<svg width="32" height="32" viewBox="0 0 32 32" fill="none" xmlns="http://www.w3.org/2000/svg">
<path fill-rule="evenodd" clip-rule="evenodd" d="M9.33301 9.33333C9.33301 8.59695 9.92996 8 10.6663 8H10.6797C11.4161 8 12.013 8.59695 12.013 9.33333C12.013 10.0697 11.4161 10.6667 10.6797 10.6667H10.6663C9.92996 10.6667 9.33301 10.0697 9.33301 9.33333Z" fill="#4E84C4"/>
<path fill-rule="evenodd" clip-rule="evenodd" d="M19.9995 9.33333C19.9995 8.59695 20.5965 8 21.3328 8H21.3462C22.0826 8 22.6795 8.59695 22.6795 9.33333C22.6795 10.0697 22.0826 10.6667 21.3462 10.6667H21.3328C20.5965 10.6667 19.9995 10.0697 19.9995 9.33333Z" fill="#4E84C4"/>
<path fill-rule="evenodd" clip-rule="evenodd" d="M14.6665 9.33333C14.6665 8.59695 15.2635 8 15.9998 8H16.0132C16.7496 8 17.3465 8.59695 17.3465 9.33333C17.3465 10.0697 16.7496 10.6667 16.0132 10.6667H15.9998C15.2635 10.6667 14.6665 10.0697 14.6665 9.33333Z" fill="#4E84C4"/>
<path fill-rule="evenodd" clip-rule="evenodd" d="M14.6665 14.6666C14.6665 13.9303 15.2635 13.3333 15.9998 13.3333H16.0132C16.7496 13.3333 17.3465 13.9303 17.3465 14.6666C17.3465 15.403 16.7496 16 16.0132 16H15.9998C15.2635 16 14.6665 15.403 14.6665 14.6666Z" fill="#4E84C4"/>
<path fill-rule="evenodd" clip-rule="evenodd" d="M19.9995 14.6666C19.9995 13.9303 20.5965 13.3333 21.3328 13.3333H21.3462C22.0826 13.3333 22.6795 13.9303 22.6795 14.6666C22.6795 15.403 22.0826 16 21.3462 16H21.3328C20.5965 16 19.9995 15.403 19.9995 14.6666Z" fill="#4E84C4"/>
<path fill-rule="evenodd" clip-rule="evenodd" d="M9.33301 14.6666C9.33301 13.9303 9.92996 13.3333 10.6663 13.3333H10.6797C11.4161 13.3333 12.013 13.9303 12.013 14.6666C12.013 15.403 11.4161 16 10.6797 16H10.6663C9.92996 16 9.33301 15.403 9.33301 14.6666Z" fill="#4E84C4"/>
<path fill-rule="evenodd" clip-rule="evenodd" d="M5.17108 2.50492C5.92123 1.75477 6.93865 1.33334 7.99951 1.33334H23.9995C25.0604 1.33334 26.0778 1.75477 26.8279 2.50492C27.5781 3.25506 27.9995 4.27248 27.9995 5.33334V26.6667C27.9995 27.7275 27.5781 28.745 26.8279 29.4951C26.0778 30.2453 25.0604 30.6667 23.9995 30.6667L18.6662 30.6667H13.3328L7.99951 30.6667C6.93865 30.6667 5.92123 30.2453 5.17108 29.4951C4.42094 28.745 3.99951 27.7275 3.99951 26.6667V5.33334C3.99951 4.27248 4.42094 3.25506 5.17108 2.50492ZM14.6662 28H17.3328V21.4882C16.9131 21.3873 16.4627 21.3337 16.0001 21.3337C15.5372 21.3337 15.0864 21.3874 14.6662 21.4884V28ZM11.9995 22.6668V28H7.99951C7.64589 28 7.30675 27.8595 7.0567 27.6095C6.80665 27.3594 6.66618 27.0203 6.66618 26.6667V5.33334C6.66618 4.97972 6.80665 4.64058 7.0567 4.39053C7.30675 4.14049 7.64589 4.00001 7.99951 4.00001H23.9995C24.3531 4.00001 24.6923 4.14049 24.9423 4.39053C25.1924 4.64058 25.3328 4.97972 25.3328 5.33334V26.6667C25.3328 27.0203 25.1924 27.3594 24.9423 27.6095C24.6923 27.8595 24.3531 28 23.9995 28H19.9995V22.6668C20.4227 22.6665 20.8388 22.4651 21.0973 22.0903C21.5153 21.4841 21.3628 20.6538 20.7566 20.2357L20.2933 19.9162C19.0519 19.0576 17.4938 18.667 16.0001 18.667C14.5063 18.667 12.9472 19.0582 11.7053 19.9166L11.2427 20.2357C10.6365 20.6538 10.484 21.4841 10.902 22.0903C11.1604 22.465 11.5764 22.6664 11.9995 22.6668Z" fill="#4E84C4"/>
</svg>
