<svg xmlns="http://www.w3.org/2000/svg" width="24" height="24" viewBox="0 0 24 24" fill="none">
  <path fill-rule="evenodd" clip-rule="evenodd" d="M6 21C6 19.8954 6.89543 19 8 19C9.10457 19 10 19.8954 10 21C10 22.1046 9.10457 23 8 23C6.89543 23 6 22.1046 6 21Z" fill="#4E84C4"/>
  <path fill-rule="evenodd" clip-rule="evenodd" d="M17 21C17 19.8954 17.8954 19 19 19C20.1046 19 21 19.8954 21 21C21 22.1046 20.1046 23 19 23C17.8954 23 17 22.1046 17 21Z" fill="#4E84C4"/>
  <path fill-rule="evenodd" clip-rule="evenodd" d="M1.05078 2.04999C1.05078 1.4977 1.4985 1.04999 2.05078 1.04999H4.05078C4.52236 1.04999 4.92985 1.37944 5.02861 1.84057L5.93014 6.04999H22.0908C22.3941 6.04999 22.681 6.18764 22.8708 6.4242C23.0606 6.66077 23.1328 6.9707 23.067 7.26678L21.4174 14.695C21.4173 14.6953 21.4175 14.6947 21.4174 14.695C21.2705 15.3615 20.9005 15.9587 20.3689 16.3867C19.8371 16.8149 19.1752 17.0489 18.4924 17.05L8.72081 17.05C8.02744 17.0626 7.35096 16.8346 6.80659 16.4045C6.25903 15.972 5.87939 15.362 5.73303 14.6797L4.1535 7.30467C4.14585 7.27551 4.13947 7.24583 4.13445 7.2157L3.24227 3.04999H2.05078C1.4985 3.04999 1.05078 2.60227 1.05078 2.04999ZM6.35848 8.04999L7.68854 14.2602C7.68851 14.2601 7.68856 14.2603 7.68854 14.2602C7.73738 14.4875 7.86396 14.691 8.04639 14.8352C8.22891 14.9794 8.45599 15.0554 8.68854 15.0502L8.71078 15.05L18.4892 15.05C18.489 15.05 18.4893 15.05 18.4892 15.05C18.7166 15.0495 18.9375 14.9715 19.1147 14.8289C19.292 14.6862 19.4152 14.4873 19.4642 14.265L20.8443 8.04999H6.35848Z" fill="#4E84C4"/>
</svg>