<svg xmlns="http://www.w3.org/2000/svg" width="24" height="24" viewBox="0 0 24 24" fill="none">
<path fill-rule="evenodd" clip-rule="evenodd" d="M3.87143 9.0082C4.17882 8.96858 4.48722 9.07373 4.70637 9.29289L14.7064 19.2929C14.9255 19.512 15.0307 19.8204 14.9911 20.1278C14.9514 20.4352 14.7715 20.7069 14.504 20.8633C12.918 21.7904 11.0696 22.1659 9.24767 21.9311C7.42571 21.6962 5.73293 20.8643 4.43395 19.5653C3.13498 18.2663 2.30304 16.5735 2.0682 14.7516C1.83335 12.9296 2.20884 11.0812 3.13597 9.49531C3.29239 9.22774 3.56403 9.04782 3.87143 9.0082ZM4.31267 11.7276C4.02267 12.6142 3.93111 13.5597 4.05179 14.4959C4.23011 15.8794 4.86182 17.1647 5.84817 18.1511C6.83451 19.1374 8.11989 19.7692 9.50335 19.9475C10.4396 20.0682 11.385 19.9766 12.2717 19.6866L4.31267 11.7276Z" fill="#4E84C4"/>
<path fill-rule="evenodd" clip-rule="evenodd" d="M12.7071 11.2929C13.0976 11.6834 13.0976 12.3166 12.7071 12.7071L9.70711 15.7071C9.31658 16.0976 8.68342 16.0976 8.29289 15.7071C7.90237 15.3166 7.90237 14.6834 8.29289 14.2929L11.2929 11.2929C11.6834 10.9024 12.3166 10.9024 12.7071 11.2929Z" fill="#4E84C4"/>
<path fill-rule="evenodd" clip-rule="evenodd" d="M10 7C10 6.44772 10.4477 6 11 6C12.8565 6 14.637 6.7375 15.9497 8.05025C17.2625 9.36301 18 11.1435 18 13C18 13.5523 17.5523 14 17 14C16.4477 14 16 13.5523 16 13C16 11.6739 15.4732 10.4021 14.5355 9.46447C13.5979 8.52678 12.3261 8 11 8C10.4477 8 10 7.55228 10 7Z" fill="#4E84C4"/>
<path fill-rule="evenodd" clip-rule="evenodd" d="M10 3C10 2.44772 10.4477 2 11 2C13.9174 2 16.7153 3.15893 18.7782 5.22183C20.8411 7.28473 22 10.0826 22 13C22 13.5523 21.5523 14 21 14C20.4477 14 20 13.5523 20 13C20 10.6131 19.0518 8.32387 17.364 6.63604C15.6761 4.94821 13.3869 4 11 4C10.4477 4 10 3.55228 10 3Z" fill="#4E84C4"/>
</svg>