<svg xmlns="http://www.w3.org/2000/svg" width="24" height="24" viewBox="0 0 24 24" fill="none">
  <path fill-rule="evenodd" clip-rule="evenodd" d="M6 8C6.55228 8 7 7.55228 7 7C7 6.44772 6.55228 6 6 6C5.44772 6 5 6.44772 5 7C5 7.55228 5.44772 8 6 8ZM6 10C7.65685 10 9 8.65685 9 7C9 5.34315 7.65685 4 6 4C4.34315 4 3 5.34315 3 7C3 8.65685 4.34315 10 6 10Z" fill="#4E84C4"/>
  <path fill-rule="evenodd" clip-rule="evenodd" d="M15.2931 2.29292C15.5975 1.98856 16.0625 1.91311 16.4475 2.1056L20.4475 4.1056C20.9414 4.35259 21.1417 4.95326 20.8947 5.44724C20.6477 5.94122 20.047 6.14144 19.553 5.89445L16.1977 4.21679L14.5003 5.91424V8.08581L16.1977 9.78327L19.553 8.1056C20.047 7.85861 20.6477 8.05884 20.8947 8.55281C21.1417 9.04679 20.9414 9.64747 20.4475 9.89445L16.4475 11.8945C16.0625 12.0869 15.5975 12.0115 15.2931 11.7071L12.7931 9.20713C12.6056 9.0196 12.5003 8.76524 12.5003 8.50003V5.50003C12.5003 5.23481 12.6056 4.98046 12.7931 4.79292L15.2931 2.29292ZM7.00025 7.00003C7.00025 6.44774 7.44797 6.00003 8.00025 6.00003H10.5003C11.0525 6.00003 11.5003 6.44774 11.5003 7.00003C11.5003 7.55231 11.0525 8.00003 10.5003 8.00003H8.00025C7.44797 8.00003 7.00025 7.55231 7.00025 7.00003ZM4.73713 8.03526C5.26996 7.88995 5.8197 8.20409 5.96501 8.73691L8.76405 19H11.8157L6.62236 9.47888C6.35789 8.99403 6.53655 8.38659 7.0214 8.12213C7.50625 7.85767 8.11368 8.03633 8.37815 8.52118L14.0939 19H16.0003C16.5525 19 17.0003 19.4477 17.0003 20C17.0003 20.5523 16.5525 21 16.0003 21H5.00025C4.44797 21 4.00025 20.5523 4.00025 20C4.00025 19.4477 4.44797 19 5.00025 19H6.691L4.03549 9.26314C3.89017 8.73032 4.20431 8.18058 4.73713 8.03526Z" fill="#4E84C4"/>
</svg>