<svg width="32" height="32" viewBox="0 0 32 32" fill="none" xmlns="http://www.w3.org/2000/svg">
<path fill-rule="evenodd" clip-rule="evenodd" d="M6.27598 12.3905C5.98377 12.0983 5.57258 11.9581 5.16272 12.011C4.75286 12.0638 4.39066 12.3037 4.1821 12.6604C2.94594 14.775 2.44528 17.2395 2.75841 19.6688C3.07153 22.0981 4.18079 24.3551 5.91275 26.0871C7.64472 27.8191 9.90177 28.9283 12.331 29.2414C14.7603 29.5546 17.2249 29.0539 19.3394 27.8177C19.6962 27.6092 19.9361 27.247 19.9889 26.8371C20.0417 26.4273 19.9015 26.0161 19.6093 25.7239L13.8856 20.0002L16.943 16.9428C17.4637 16.4221 17.4637 15.5779 16.943 15.0572C16.4223 14.5365 15.5781 14.5365 15.0574 15.0572L12 18.1146L6.27598 12.3905ZM5.4032 19.3279C5.24229 18.0796 5.36438 16.819 5.75104 15.6368L16.363 26.2488C15.1808 26.6355 13.9203 26.7576 12.6719 26.5967C10.8273 26.3589 9.1135 25.5166 7.79837 24.2015C6.48325 22.8863 5.64096 21.1725 5.4032 19.3279Z" fill="#4E84C4"/>
<path fill-rule="evenodd" clip-rule="evenodd" d="M13.3335 9.33333C13.3335 8.59695 13.9304 8 14.6668 8C17.1422 8 19.5162 8.98333 21.2665 10.7337C23.0168 12.484 24.0002 14.858 24.0002 17.3333C24.0002 18.0697 23.4032 18.6667 22.6668 18.6667C21.9305 18.6667 21.3335 18.0697 21.3335 17.3333C21.3335 15.5652 20.6311 13.8695 19.3809 12.6193C18.1306 11.369 16.4349 10.6667 14.6668 10.6667C13.9304 10.6667 13.3335 10.0697 13.3335 9.33333Z" fill="#4E84C4"/>
<path fill-rule="evenodd" clip-rule="evenodd" d="M13.3335 4.00001C13.3335 3.26363 13.9304 2.66667 14.6668 2.66667C18.5567 2.66667 22.2872 4.21191 25.0377 6.96244C27.7883 9.71297 29.3335 13.4435 29.3335 17.3333C29.3335 18.0697 28.7365 18.6667 28.0002 18.6667C27.2638 18.6667 26.6668 18.0697 26.6668 17.3333C26.6668 14.1507 25.4025 11.0985 23.1521 8.84806C20.9017 6.59762 17.8494 5.33334 14.6668 5.33334C13.9304 5.33334 13.3335 4.73638 13.3335 4.00001Z" fill="#4E84C4"/>
</svg>
