<svg xmlns="http://www.w3.org/2000/svg" width="24" height="24" viewBox="0 0 24 24" fill="none">
  <path fill-rule="evenodd" clip-rule="evenodd" d="M7.85591 9.92832C8.40018 9.25738 9.21591 9 10 9H13C13.7957 9 14.5587 9.31607 15.1213 9.87868C15.6839 10.4413 16 11.2043 16 12C16 12.7957 15.6839 13.5587 15.1213 14.1213C14.5587 14.6839 13.7957 15 13 15H11C10.4477 15 10 14.5523 10 14C10 13.4477 10.4477 13 11 13H13C13.2652 13 13.5196 12.8946 13.7071 12.7071C13.8946 12.5196 14 12.2652 14 12C14 11.7348 13.8946 11.4804 13.7071 11.2929C13.5196 11.1054 13.2652 11 13 11H10C9.61142 11 9.45673 11.1244 9.4 11.2C9.36797 11.2427 9.33257 11.2828 9.29414 11.3198L3.69414 16.7198C3.29658 17.1032 2.66352 17.0917 2.28016 16.6941C1.8968 16.2966 1.90831 15.6635 2.30587 15.2802L7.85591 9.92832Z" fill="#4E84C4"/>
  <path fill-rule="evenodd" clip-rule="evenodd" d="M17.9667 8.75992C18.5449 8.2152 19.3156 7.92186 20.1098 7.94432C20.9057 7.96681 21.66 8.30453 22.2068 8.88318C22.7537 9.46184 23.0482 10.234 23.0257 11.0299C23.0033 11.8246 22.6664 12.578 22.0892 13.1247L17.5213 17.4939C16.6078 18.516 15.3317 19 14 19H10C9.61144 19 9.45674 19.1244 9.40001 19.2C9.35828 19.2557 9.31086 19.3068 9.25852 19.3526L7.65852 20.7526C7.24288 21.1163 6.61112 21.0742 6.24744 20.6585C5.88375 20.2429 5.92587 19.6111 6.34151 19.2475L7.87346 17.907C8.41761 17.2519 9.22429 17 10 17H14C14.8531 17 15.563 16.6952 16.0474 16.1415C16.0669 16.1192 16.0874 16.0978 16.1088 16.0774L20.7132 11.6732C20.9063 11.4907 21.019 11.239 21.0265 10.9733C21.034 10.7077 20.9357 10.45 20.7532 10.2569C20.5707 10.0637 20.3189 9.95103 20.0533 9.94352C19.7877 9.93601 19.53 10.0343 19.3369 10.2168L19.3305 10.2228L15.1305 14.1228C14.7258 14.4986 14.093 14.4752 13.7172 14.0705C13.3414 13.6658 13.3649 13.033 13.7696 12.6572L17.9667 8.75992Z" fill="#4E84C4"/>
  <path fill-rule="evenodd" clip-rule="evenodd" d="M1.29289 14.2929C1.68342 13.9024 2.31658 13.9024 2.70711 14.2929L8.70711 20.2929C9.09763 20.6834 9.09763 21.3166 8.70711 21.7071C8.31658 22.0976 7.68342 22.0976 7.29289 21.7071L1.29289 15.7071C0.902369 15.3166 0.902369 14.6834 1.29289 14.2929Z" fill="#4E84C4"/>
  <path fill-rule="evenodd" clip-rule="evenodd" d="M17.0993 1.95385C17.896 1.68631 18.7596 1.69561 19.5503 1.98026C20.341 2.2649 21.0124 2.8082 21.4557 3.52212C21.8891 4.2201 22.0796 5.04118 21.9987 5.85773C21.9715 7.3928 20.869 8.54434 20.2063 9.20711L16.7063 12.7071C16.3198 13.0936 15.6945 13.0982 15.3024 12.7173L11.8024 9.31728C11.783 9.29845 11.7644 9.27884 11.7466 9.25851C11.6917 9.19572 11.6325 9.12963 11.5702 9.06013C10.944 8.36111 10.009 7.31735 9.99925 5.82363C9.96656 5.02414 10.1884 4.23466 10.6332 3.56904C11.0824 2.89692 11.7351 2.38649 12.4957 2.11268C13.2563 1.83886 14.0847 1.81609 14.8591 2.04771C15.2528 2.16545 15.6221 2.34577 15.9537 2.57953C16.2935 2.30714 16.6807 2.09444 17.0993 1.95385ZM18.8728 3.86203C18.5061 3.73001 18.1056 3.72569 17.7361 3.84978C17.3666 3.97387 17.0498 4.21909 16.8372 4.5457C16.6591 4.81917 16.3587 4.98854 16.0326 4.99944C15.7064 5.01035 15.3955 4.86141 15.1995 4.60044C14.9709 4.29604 14.6508 4.07293 14.2861 3.96386C13.9214 3.85479 13.5313 3.86551 13.1732 3.99445C12.815 4.12339 12.5076 4.36375 12.2961 4.68025C12.0846 4.99675 11.9802 5.37272 11.9981 5.75296C11.9988 5.76863 11.9992 5.78432 11.9992 5.8C11.9992 6.51235 12.4228 6.99571 13.1508 7.82621C13.1752 7.85405 13.1999 7.88227 13.225 7.91091L15.989 10.596L18.7921 7.79289C19.521 7.06394 19.9992 6.43606 19.9992 5.8C19.9992 5.76203 20.0013 5.72409 20.0057 5.68636C20.0499 5.29912 19.9622 4.90828 19.7566 4.57716C19.551 4.24604 19.2396 3.99405 18.8728 3.86203Z" fill="#4E84C4"/>
</svg>