<svg xmlns="http://www.w3.org/2000/svg" width="24" height="24" viewBox="0 0 24 24" fill="none">
<path fill-rule="evenodd" clip-rule="evenodd" d="M10.7561 4.27004C11.1468 4.09185 11.5713 3.99963 12.0008 3.99963C12.4302 3.99963 12.8546 4.09182 13.2453 4.26995L21.804 8.16834C22.1576 8.31968 22.4603 8.56988 22.6755 8.88908C22.8942 9.21356 23.013 9.59509 23.017 9.98639C23.0211 10.3777 22.9103 10.7616 22.6983 11.0905C22.4874 11.4177 22.1856 11.6763 21.83 11.8344L13.2458 15.7298C13.2455 15.7299 13.246 15.7297 13.2458 15.7298C12.8552 15.9078 12.4301 16.0003 12.0008 16.0003C11.5712 16.0003 11.1467 15.9081 10.7559 15.7299C10.7558 15.7298 10.7559 15.7299 10.7559 15.7299L2.19154 11.8244C1.83896 11.6682 1.53902 11.4133 1.32793 11.0904C1.11523 10.765 1.00195 10.3847 1.00195 9.99599C1.00195 9.60728 1.11523 9.22698 1.32793 8.90162C1.5391 8.5786 1.83919 8.32362 2.19193 8.16737L10.7561 4.27004C10.7562 4.26999 10.756 4.27008 10.7561 4.27004ZM12.0008 5.99963C11.8576 5.99963 11.7161 6.03039 11.5858 6.08981L3.01498 9.99018L3.00195 9.99599L3.01568 10.0021L11.5857 13.9101C11.716 13.9696 11.8576 14.0003 12.0008 14.0003C12.144 14.0003 12.2855 13.9696 12.4158 13.9102L21.0171 10.007C21.0071 10.0029 20.9971 9.99853 20.9873 9.99403L12.4163 6.09003C12.286 6.03061 12.144 5.99963 12.0008 5.99963Z" fill="#4E84C4"/>
<path fill-rule="evenodd" clip-rule="evenodd" d="M22 9C22.5523 9 23 9.44772 23 10V16C23 16.5523 22.5523 17 22 17C21.4477 17 21 16.5523 21 16V10C21 9.44772 21.4477 9 22 9Z" fill="#4E84C4"/>
<path fill-rule="evenodd" clip-rule="evenodd" d="M6 11.5C6.55228 11.5 7 11.9477 7 12.5V16C7 16.2251 7.20327 16.7262 8.20457 17.2269C9.15909 17.7042 10.5239 18 12 18C13.4761 18 14.8409 17.7042 15.7954 17.2269C16.7967 16.7262 17 16.2251 17 16V12.5C17 11.9477 17.4477 11.5 18 11.5C18.5523 11.5 19 11.9477 19 12.5V16C19 17.3662 17.939 18.3912 16.6899 19.0157C15.3939 19.6637 13.7065 20 12 20C10.2935 20 8.60606 19.6637 7.31015 19.0157C6.06101 18.3912 5 17.3662 5 16V12.5C5 11.9477 5.44772 11.5 6 11.5Z" fill="#4E84C4"/>
</svg>