<svg width="32" height="32" viewBox="0 0 32 32" fill="none" xmlns="http://www.w3.org/2000/svg">
<path fill-rule="evenodd" clip-rule="evenodd" d="M2.6665 3.99999C2.6665 3.26361 3.26346 2.66666 3.99984 2.66666H27.9998C28.7362 2.66666 29.3332 3.26361 29.3332 3.99999V28C29.3332 28.7364 28.7362 29.3333 27.9998 29.3333H3.99984C3.26346 29.3333 2.6665 28.7364 2.6665 28V3.99999ZM5.33317 5.33332V26.6667H26.6665V5.33332H5.33317Z" fill="#4E84C4"/>
<path fill-rule="evenodd" clip-rule="evenodd" d="M24.9426 11.0572C25.4633 11.5779 25.4633 12.4221 24.9426 12.9428L18.1426 19.7428C17.6219 20.2635 16.7777 20.2635 16.257 19.7428L13.1998 16.6856L8.94265 20.9428C8.42195 21.4635 7.57773 21.4635 7.05703 20.9428C6.53633 20.4221 6.53633 19.5779 7.05703 19.0572L12.257 13.8572C12.7777 13.3365 13.6219 13.3365 14.1426 13.8572L17.1998 16.9144L23.057 11.0572C23.5777 10.5365 24.4219 10.5365 24.9426 11.0572Z" fill="#4E84C4"/>
<path fill-rule="evenodd" clip-rule="evenodd" d="M17.3335 12C17.3335 11.2636 17.9304 10.6667 18.6668 10.6667H24.0002C24.7365 10.6667 25.3335 11.2636 25.3335 12V17.3333C25.3335 18.0697 24.7365 18.6667 24.0002 18.6667C23.2638 18.6667 22.6668 18.0697 22.6668 17.3333V13.3333H18.6668C17.9304 13.3333 17.3335 12.7364 17.3335 12Z" fill="#4E84C4"/>
</svg>
