<svg xmlns="http://www.w3.org/2000/svg" width="24" height="24" viewBox="0 0 24 24" fill="none">
  <path fill-rule="evenodd" clip-rule="evenodd" d="M22.7433 8.33106C23.1128 8.74158 23.0795 9.37387 22.669 9.74332C19.0499 13.0003 15.3804 13.0001 12.0619 13L12 13C8.66823 13 5.69443 13.0205 2.66895 15.7433C2.25844 16.1128 1.62615 16.0795 1.2567 15.669C0.887249 15.2584 0.920543 14.6261 1.33106 14.2567C4.95008 10.9997 8.61965 10.9999 11.9381 11L12 11C15.3318 11 18.3056 10.9795 21.3311 8.2567C21.7416 7.88725 22.3739 7.92054 22.7433 8.33106Z" fill="#4E84C4"/>
  <path fill-rule="evenodd" clip-rule="evenodd" d="M11.9502 15.0173C12.4968 15.0964 12.8758 15.6036 12.7967 16.1502C12.484 18.3117 11.6938 20.5014 9.74334 22.6689C9.3739 23.0795 8.74162 23.1128 8.33108 22.7433C7.92055 22.3739 7.88724 21.7416 8.25668 21.3311C9.90217 19.5025 10.552 17.6983 10.8173 15.8638C10.8964 15.3172 11.4036 14.9382 11.9502 15.0173Z" fill="#4E84C4"/>
  <path fill-rule="evenodd" clip-rule="evenodd" d="M15.6694 1.25668C16.0799 1.62611 16.1133 2.2584 15.7438 2.66893C14.0983 4.49746 13.4485 6.30175 13.1832 8.13616C13.1041 8.68276 12.5969 9.06177 12.0503 8.98271C11.5037 8.90365 11.1247 8.39645 11.2038 7.84985C11.5165 5.68827 12.3066 3.49856 14.2572 1.33108C14.6266 0.920555 15.2589 0.887241 15.6694 1.25668Z" fill="#4E84C4"/>
  <path fill-rule="evenodd" clip-rule="evenodd" d="M13.7929 2.79289C14.1834 2.40237 14.8166 2.40237 15.2071 2.79289L17.7071 5.29289C18.0976 5.68342 18.0976 6.31658 17.7071 6.70711C17.3166 7.09763 16.6834 7.09763 16.2929 6.70711L13.7929 4.20711C13.4024 3.81658 13.4024 3.18342 13.7929 2.79289Z" fill="#4E84C4"/>
  <path fill-rule="evenodd" clip-rule="evenodd" d="M12.2929 6.29289C12.6834 5.90237 13.3166 5.90237 13.7071 6.29289L14.7071 7.29289C15.0976 7.68342 15.0976 8.31658 14.7071 8.70711C14.3166 9.09763 13.6834 9.09763 13.2929 8.70711L12.2929 7.70711C11.9024 7.31658 11.9024 6.68342 12.2929 6.29289Z" fill="#4E84C4"/>
  <path fill-rule="evenodd" clip-rule="evenodd" d="M6.29289 17.2929C6.68342 16.9024 7.31658 16.9024 7.70711 17.2929L10.2071 19.7929C10.5976 20.1834 10.5976 20.8166 10.2071 21.2071C9.81658 21.5976 9.18342 21.5976 8.79289 21.2071L6.29289 18.7071C5.90237 18.3166 5.90237 17.6834 6.29289 17.2929Z" fill="#4E84C4"/>
  <path fill-rule="evenodd" clip-rule="evenodd" d="M2.79289 13.7929C3.18342 13.4024 3.81658 13.4024 4.20711 13.7929L4.70711 14.2929C5.09763 14.6834 5.09763 15.3166 4.70711 15.7071C4.31658 16.0976 3.68342 16.0976 3.29289 15.7071L2.79289 15.2071C2.40237 14.8166 2.40237 14.1834 2.79289 13.7929Z" fill="#4E84C4"/>
  <path fill-rule="evenodd" clip-rule="evenodd" d="M19.2929 8.29289C19.6834 7.90237 20.3166 7.90237 20.7071 8.29289L21.2071 8.79289C21.5976 9.18342 21.5976 9.81658 21.2071 10.2071C20.8166 10.5976 20.1834 10.5976 19.7929 10.2071L19.2929 9.70711C18.9024 9.31658 18.9024 8.68342 19.2929 8.29289Z" fill="#4E84C4"/>
  <path fill-rule="evenodd" clip-rule="evenodd" d="M5.79289 11.7929C6.18342 11.4024 6.81658 11.4024 7.20711 11.7929L8.20711 12.7929C8.59763 13.1834 8.59763 13.8166 8.20711 14.2071C7.81658 14.5976 7.18342 14.5976 6.79289 14.2071L5.79289 13.2071C5.40237 12.8166 5.40237 12.1834 5.79289 11.7929Z" fill="#4E84C4"/>
  <path fill-rule="evenodd" clip-rule="evenodd" d="M15.7929 9.79289C16.1834 9.40237 16.8166 9.40237 17.2071 9.79289L18.2071 10.7929C18.5976 11.1834 18.5976 11.8166 18.2071 12.2071C17.8166 12.5976 17.1834 12.5976 16.7929 12.2071L15.7929 11.2071C15.4024 10.8166 15.4024 10.1834 15.7929 9.79289Z" fill="#4E84C4"/>
  <path fill-rule="evenodd" clip-rule="evenodd" d="M9.29289 15.2929C9.68342 14.9024 10.3166 14.9024 10.7071 15.2929L12.2071 16.7929C12.5976 17.1834 12.5976 17.8166 12.2071 18.2071C11.8166 18.5976 11.1834 18.5976 10.7929 18.2071L9.29289 16.7071C8.90237 16.3166 8.90237 15.6834 9.29289 15.2929Z" fill="#4E84C4"/>
</svg>