<svg xmlns="http://www.w3.org/2000/svg" width="24" height="24" viewBox="0 0 24 24" fill="none">
<path fill-rule="evenodd" clip-rule="evenodd" d="M2 3C2 2.44772 2.44772 2 3 2H21C21.5523 2 22 2.44772 22 3V21C22 21.5523 21.5523 22 21 22H3C2.44772 22 2 21.5523 2 21V3ZM4 4V20H20V4H4Z" fill="#4E84C4"/>
<path fill-rule="evenodd" clip-rule="evenodd" d="M18.7071 8.29289C19.0976 8.68342 19.0976 9.31658 18.7071 9.70711L13.6071 14.8071C13.2166 15.1976 12.5834 15.1976 12.1929 14.8071L9.9 12.5142L6.70711 15.7071C6.31658 16.0976 5.68342 16.0976 5.29289 15.7071C4.90237 15.3166 4.90237 14.6834 5.29289 14.2929L9.19289 10.3929C9.58342 10.0024 10.2166 10.0024 10.6071 10.3929L12.9 12.6858L17.2929 8.29289C17.6834 7.90237 18.3166 7.90237 18.7071 8.29289Z" fill="#4E84C4"/>
<path fill-rule="evenodd" clip-rule="evenodd" d="M13 9C13 8.44772 13.4477 8 14 8H18C18.5523 8 19 8.44772 19 9V13C19 13.5523 18.5523 14 18 14C17.4477 14 17 13.5523 17 13V10H14C13.4477 10 13 9.55228 13 9Z" fill="#4E84C4"/>
</svg>