<svg width="16" height="16" viewBox="0 0 16 16" fill="none" xmlns="http://www.w3.org/2000/svg">
<path d="M6.75 4.25V5.5H3.625V12.375H10.5V9.25H11.75V13C11.75 13.1658 11.6842 13.3247 11.5669 13.4419C11.4497 13.5592 11.2908 13.625 11.125 13.625H3C2.83424 13.625 2.67527 13.5592 2.55806 13.4419C2.44085 13.3247 2.375 13.1658 2.375 13V4.875C2.375 4.70924 2.44085 4.55027 2.55806 4.43306C2.67527 4.31585 2.83424 4.25 3 4.25H6.75ZM13.625 2.375V7.375H12.375V4.50813L7.50437 9.37937L6.62063 8.49563L11.4906 3.625H8.625V2.375H13.625Z" fill="#F4F3F9"/>
</svg>
